<svg width="23" height="20" viewBox="0 0 23 20" fill="none" xmlns="http://www.w3.org/2000/svg">
<path d="M0.707253 10.03C0.707253 9.75297 0.837092 9.45867 1.09677 9.25093L10.1162 1.67702C10.9385 0.984551 11.9859 0.984551 12.7995 1.67702L16.712 4.96626V3.52073C16.712 3.13121 16.9803 2.88019 17.3699 2.88019H18.7202C19.1097 2.88019 19.3694 3.13121 19.3694 3.52073V7.19083L21.8103 9.24228C22.0613 9.45867 22.1912 9.72701 22.1912 10.0473C22.1912 10.6013 21.767 10.9561 21.2044 10.9561C20.9101 10.9561 20.6418 10.809 20.4081 10.6099L11.8734 3.44283C11.605 3.21777 11.3021 3.21777 11.0424 3.44283L2.49037 10.6099C2.25666 10.809 1.98833 10.9561 1.70268 10.9561C1.08811 10.9561 0.707253 10.5407 0.707253 10.03ZM3.58101 17.8462V11.4409L10.9039 5.30384C11.2415 5.02685 11.657 5.0182 11.9945 5.30384L19.3174 11.4495V17.8462C19.3174 19.1187 18.4951 19.9063 17.1708 19.9063H5.72767C4.40332 19.9063 3.58101 19.1187 3.58101 17.8462ZM13.743 17.9761V12.4363C13.743 12.0295 13.4834 11.7611 13.0679 11.7611H9.83057C9.42374 11.7611 9.14675 12.0295 9.14675 12.4363V17.9761H13.743Z" fill="#438EFF"/>
</svg>
