<svg width="20" height="18" viewBox="0 0 20 18" fill="none" xmlns="http://www.w3.org/2000/svg">
<g clip-path="url(#clip0_313_105)">
<path d="M12.1343 18H18.5969C19.4558 18 20 17.4008 20 16.4641V5.69618C20 4.75947 19.4558 4.16031 18.5969 4.16031H12.7466V5.51897H18.1462C18.4778 5.51897 18.6309 5.67931 18.6309 6.00841V16.1519C18.6309 16.481 18.4778 16.6413 18.1462 16.6413H12.1343V18ZM15.3996 8.80162H16.7687C16.9387 8.80162 17.0577 8.6835 17.0577 8.51475V7.19829C17.0577 7.02952 16.9387 6.91137 16.7687 6.91137H15.3996C15.2211 6.91137 15.119 7.02952 15.119 7.19829V8.51475C15.119 8.6835 15.2211 8.80162 15.3996 8.80162ZM15.3996 12.0253H16.7687C16.9387 12.0253 17.0577 11.9071 17.0577 11.7384V10.4219C17.0577 10.2531 16.9387 10.135 16.7687 10.135H15.3996C15.2211 10.135 15.119 10.2531 15.119 10.4219V11.7384C15.119 11.9071 15.2211 12.0253 15.3996 12.0253ZM15.3996 15.2489H16.7687C16.9387 15.2489 17.0577 15.1308 17.0577 14.962V13.6455C17.0577 13.4768 16.9387 13.3586 16.7687 13.3586H15.3996C15.2211 13.3586 15.119 13.4768 15.119 13.6455V14.962C15.119 15.1308 15.2211 15.2489 15.3996 15.2489ZM0 16.4641C0 17.4008 0.544217 18 1.41156 18H12.1343C12.9932 18 13.5374 17.4008 13.5374 16.4641V1.54429C13.5374 0.607578 12.9932 0.00842285 12.1343 0.00842285H1.41156C0.544217 0.00842285 0 0.607578 0 1.54429V16.4641ZM1.36905 16.1519V1.85652C1.36905 1.51897 1.52211 1.36707 1.86224 1.36707H11.6837C12.0153 1.36707 12.1683 1.51897 12.1683 1.85652V16.1519C12.1683 16.481 12.0153 16.6413 11.6837 16.6413H1.86224C1.52211 16.6413 1.36905 16.481 1.36905 16.1519ZM3.80952 17.2827H4.92346V14.4641C4.92346 14.2869 5.017 14.1941 5.19557 14.1941H8.34182C8.52889 14.1941 8.61393 14.2869 8.61393 14.4641V17.2827H9.72789V14.1519C9.72789 13.4261 9.40476 13.0886 8.70746 13.0886H4.82993C4.13264 13.0886 3.80952 13.4261 3.80952 14.1519V17.2827ZM3.94557 5.05483H5.60373C5.80781 5.05483 5.95237 4.91981 5.95237 4.70884V3.11391C5.95237 2.91137 5.80781 2.76791 5.60373 2.76791H3.94557C3.74149 2.76791 3.61394 2.91137 3.61394 3.11391V4.70884C3.61394 4.91981 3.74149 5.05483 3.94557 5.05483ZM7.93366 5.05483H9.58335C9.78736 5.05483 9.93191 4.91981 9.93191 4.70884V3.11391C9.93191 2.91137 9.78736 2.76791 9.58335 2.76791H7.93366C7.72107 2.76791 7.59352 2.91137 7.59352 3.11391V4.70884C7.59352 4.91981 7.72107 5.05483 7.93366 5.05483ZM3.94557 8.3966H5.60373C5.80781 8.3966 5.95237 8.26158 5.95237 8.05061V6.45567C5.95237 6.25314 5.80781 6.10968 5.60373 6.10968H3.94557C3.74149 6.10968 3.61394 6.25314 3.61394 6.45567V8.05061C3.61394 8.26158 3.74149 8.3966 3.94557 8.3966ZM7.93366 8.3966H9.58335C9.78736 8.3966 9.93191 8.26158 9.93191 8.05061V6.45567C9.93191 6.25314 9.78736 6.10968 9.58335 6.10968H7.93366C7.72107 6.10968 7.59352 6.25314 7.59352 6.45567V8.05061C7.59352 8.26158 7.72107 8.3966 7.93366 8.3966ZM3.94557 11.7384H5.60373C5.80781 11.7384 5.95237 11.5949 5.95237 11.3924V9.79745C5.95237 9.58652 5.80781 9.45145 5.60373 9.45145H3.94557C3.74149 9.45145 3.61394 9.58652 3.61394 9.79745V11.3924C3.61394 11.5949 3.74149 11.7384 3.94557 11.7384ZM7.93366 11.7384H9.58335C9.78736 11.7384 9.93191 11.5949 9.93191 11.3924V9.79745C9.93191 9.58652 9.78736 9.45145 9.58335 9.45145H7.93366C7.72107 9.45145 7.59352 9.58652 7.59352 9.79745V11.3924C7.59352 11.5949 7.72107 11.7384 7.93366 11.7384Z" fill="#438EFF"/>
</g>
<defs>
<clipPath id="clip0_313_105">
<rect width="20" height="18" fill="white"/>
</clipPath>
</defs>
</svg>
