<svg width="21" height="19" viewBox="0 0 21 19" fill="none" xmlns="http://www.w3.org/2000/svg">
<g clip-path="url(#clip0_43_65)">
<path d="M12.6343 18.5H19.0969C19.9558 18.5 20.5 17.9008 20.5 16.9641V6.19618C20.5 5.25947 19.9558 4.66031 19.0969 4.66031H13.2466V6.01897H18.6462C18.9778 6.01897 19.1309 6.17931 19.1309 6.50841V16.6519C19.1309 16.981 18.9778 17.1413 18.6462 17.1413H12.6343V18.5ZM15.8996 9.30162H17.2687C17.4387 9.30162 17.5577 9.1835 17.5577 9.01475V7.69829C17.5577 7.52952 17.4387 7.41137 17.2687 7.41137H15.8996C15.7211 7.41137 15.619 7.52952 15.619 7.69829V9.01475C15.619 9.1835 15.7211 9.30162 15.8996 9.30162ZM15.8996 12.5253H17.2687C17.4387 12.5253 17.5577 12.4071 17.5577 12.2384V10.9219C17.5577 10.7531 17.4387 10.635 17.2687 10.635H15.8996C15.7211 10.635 15.619 10.7531 15.619 10.9219V12.2384C15.619 12.4071 15.7211 12.5253 15.8996 12.5253ZM15.8996 15.7489H17.2687C17.4387 15.7489 17.5577 15.6308 17.5577 15.462V14.1455C17.5577 13.9768 17.4387 13.8586 17.2687 13.8586H15.8996C15.7211 13.8586 15.619 13.9768 15.619 14.1455V15.462C15.619 15.6308 15.7211 15.7489 15.8996 15.7489ZM0.5 16.9641C0.5 17.9008 1.04422 18.5 1.91156 18.5H12.6343C13.4932 18.5 14.0374 17.9008 14.0374 16.9641V2.04429C14.0374 1.10758 13.4932 0.508423 12.6343 0.508423H1.91156C1.04422 0.508423 0.5 1.10758 0.5 2.04429V16.9641ZM1.86905 16.6519V2.35652C1.86905 2.01897 2.02211 1.86707 2.36224 1.86707H12.1837C12.5153 1.86707 12.6683 2.01897 12.6683 2.35652V16.6519C12.6683 16.981 12.5153 17.1413 12.1837 17.1413H2.36224C2.02211 17.1413 1.86905 16.981 1.86905 16.6519ZM4.30952 17.7827H5.42346V14.9641C5.42346 14.7869 5.517 14.6941 5.69557 14.6941H8.84182C9.02889 14.6941 9.11393 14.7869 9.11393 14.9641V17.7827H10.2279V14.6519C10.2279 13.9261 9.90476 13.5886 9.20746 13.5886H5.32993C4.63264 13.5886 4.30952 13.9261 4.30952 14.6519V17.7827ZM4.44557 5.55483H6.10373C6.30781 5.55483 6.45237 5.41981 6.45237 5.20884V3.61391C6.45237 3.41137 6.30781 3.26791 6.10373 3.26791H4.44557C4.24149 3.26791 4.11394 3.41137 4.11394 3.61391V5.20884C4.11394 5.41981 4.24149 5.55483 4.44557 5.55483ZM8.43366 5.55483H10.0833C10.2874 5.55483 10.4319 5.41981 10.4319 5.20884V3.61391C10.4319 3.41137 10.2874 3.26791 10.0833 3.26791H8.43366C8.22107 3.26791 8.09352 3.41137 8.09352 3.61391V5.20884C8.09352 5.41981 8.22107 5.55483 8.43366 5.55483ZM4.44557 8.8966H6.10373C6.30781 8.8966 6.45237 8.76158 6.45237 8.55061V6.95567C6.45237 6.75314 6.30781 6.60968 6.10373 6.60968H4.44557C4.24149 6.60968 4.11394 6.75314 4.11394 6.95567V8.55061C4.11394 8.76158 4.24149 8.8966 4.44557 8.8966ZM8.43366 8.8966H10.0833C10.2874 8.8966 10.4319 8.76158 10.4319 8.55061V6.95567C10.4319 6.75314 10.2874 6.60968 10.0833 6.60968H8.43366C8.22107 6.60968 8.09352 6.75314 8.09352 6.95567V8.55061C8.09352 8.76158 8.22107 8.8966 8.43366 8.8966ZM4.44557 12.2384H6.10373C6.30781 12.2384 6.45237 12.0949 6.45237 11.8924V10.2975C6.45237 10.0865 6.30781 9.95145 6.10373 9.95145H4.44557C4.24149 9.95145 4.11394 10.0865 4.11394 10.2975V11.8924C4.11394 12.0949 4.24149 12.2384 4.44557 12.2384ZM8.43366 12.2384H10.0833C10.2874 12.2384 10.4319 12.0949 10.4319 11.8924V10.2975C10.4319 10.0865 10.2874 9.95145 10.0833 9.95145H8.43366C8.22107 9.95145 8.09352 10.0865 8.09352 10.2975V11.8924C8.09352 12.0949 8.22107 12.2384 8.43366 12.2384Z" fill="#959595"/>
</g>
<defs>
<clipPath id="clip0_43_65">
<rect width="20" height="18" fill="white" transform="translate(0.5 0.5)"/>
</clipPath>
</defs>
</svg>
