<svg width="30" height="22" viewBox="0 0 30 22" fill="none" xmlns="http://www.w3.org/2000/svg">
<g clip-path="url(#clip0_555_794)">
<path d="M5.22128 18.0094C4.46809 18.0094 3.97022 17.4945 3.97022 16.7736V14.3921C3.97022 13.6583 4.46809 13.1563 5.22128 13.1563H8.34894C9.10213 13.1563 9.60001 13.6583 9.60001 14.3921V16.7736C9.60001 17.4945 9.10213 18.0094 8.34894 18.0094H5.22128ZM0 8.12292V5.20075H30V8.12292H0ZM4.00852 22.0001H25.9915C28.6724 22.0001 30 20.6741 30 18.0223V4.00357C30 1.35173 28.6724 0.0129395 25.9915 0.0129395H4.00852C1.34043 0.0129395 0 1.35173 0 4.00357V18.0223C0 20.6741 1.34043 22.0001 4.00852 22.0001Z" fill="#438EFF"/>
</g>
<defs>
<clipPath id="clip0_555_794">
<rect width="30" height="22" fill="white"/>
</clipPath>
</defs>
</svg>
