<svg width="26" height="22" viewBox="0 0 26 22" fill="none" xmlns="http://www.w3.org/2000/svg">
<g clip-path="url(#clip0_554_786)">
<path d="M2.22485 13.6011C1.89767 13.6011 1.75589 13.485 1.75589 13.1474V3.19721C1.75589 2.72239 2.06125 2.4375 2.54112 2.4375H23.459C23.9388 2.4375 24.2442 2.72239 24.2442 3.19721V13.1474C24.2442 13.485 24.0915 13.6011 23.7643 13.6011H2.22485Z" fill="#438EFF" fill-opacity="0.2125"/>
<path d="M2.50839 18.2541H23.4808C25.0512 18.2541 26 17.3361 26 15.8168V3.16539C26 1.64596 25.0512 0.738525 23.4808 0.738525H2.50839C0.948827 0.738525 0 1.64596 0 3.16539V15.8168C0 17.3361 0.948827 18.2541 2.50839 18.2541ZM2.22484 13.6009C1.89766 13.6009 1.75588 13.4849 1.75588 13.1472V3.19704C1.75588 2.72222 2.06124 2.43733 2.54111 2.43733H23.459C23.9388 2.43733 24.2442 2.72222 24.2442 3.19704V13.1472C24.2442 13.4849 24.0915 13.6009 23.7643 13.6009H2.22484ZM9.55371 20.7655H16.4464V18.117H9.55371V20.7655ZM9.48827 21.9999H16.5118C16.9916 21.9999 17.3843 21.6201 17.3843 21.1453C17.3843 20.6705 16.9916 20.2906 16.5118 20.2906H9.48827C9.00841 20.2906 8.60489 20.6705 8.60489 21.1453C8.60489 21.6201 9.00841 21.9999 9.48827 21.9999Z" fill="#438EFF"/>
</g>
<defs>
<clipPath id="clip0_554_786">
<rect width="26" height="22" fill="white"/>
</clipPath>
</defs>
</svg>
