<svg width="28" height="28" viewBox="0 0 28 28" fill="none" xmlns="http://www.w3.org/2000/svg">
<path d="M14 28C21.6589 28 28 21.6451 28 14C28 6.34117 21.6451 0 13.9863 0C6.34117 0 0 6.34117 0 14C0 21.6451 6.35489 28 14 28ZM10.9392 23.2646C10.2804 23.2646 9.85489 22.9078 9.86861 22.249L10.0333 13.2725C10.0333 12.998 9.90979 12.7784 9.66273 12.6686C8.59214 12.2157 8.13921 11.7353 8.20783 10.3216L8.42744 5.42156C8.44117 5.06471 8.64704 4.85882 8.96273 4.85882C9.29215 4.85882 9.48431 5.07842 9.48431 5.43529L9.41568 10.2255C9.41568 10.4863 9.60784 10.6784 9.85489 10.6784C10.1431 10.6784 10.3216 10.4863 10.3216 10.2392L10.4039 5.31176C10.4039 4.9549 10.6235 4.76274 10.9392 4.76274C11.2549 4.76274 11.4882 4.9549 11.4882 5.31176L11.5431 10.2392C11.5431 10.4863 11.7353 10.6784 12.0098 10.6784C12.2843 10.6784 12.4765 10.4863 12.4765 10.2255L12.4078 5.43529C12.4078 5.07842 12.6 4.85882 12.9157 4.85882C13.2451 4.85882 13.4235 5.06471 13.451 5.42156L13.6843 10.3216C13.7529 11.7353 13.2863 12.2157 12.2294 12.6686C11.9823 12.7784 11.8725 12.998 11.8725 13.2725L12.0098 22.249C12.0372 22.9078 11.6118 23.2646 10.9392 23.2646ZM16.6628 16.4706C16.6764 16.1686 16.5392 15.9491 16.251 15.7568L15.798 15.4275C15.3999 15.1392 15.1804 14.7548 15.1804 14.1922V13.6569C15.1804 10.4725 16.0313 7.09607 17.3215 5.29803C17.5686 4.92745 17.7881 4.76274 18.0764 4.76274C18.3647 4.76274 18.6529 4.94116 18.6529 5.35293V22.2902C18.6529 22.9353 18.2411 23.2646 17.5548 23.2646C16.9097 23.2646 16.4706 22.9078 16.4843 22.2078L16.6628 16.4706Z" fill="#438EFF"/>
</svg>
