<svg width="10" height="12" viewBox="0 0 10 12" fill="none" xmlns="http://www.w3.org/2000/svg">
<path fill-rule="evenodd" clip-rule="evenodd" d="M2.32141 1.11457C2.02554 1.11457 1.7857 1.36407 1.7857 1.67185V10.4913L4.51189 8.06048C4.79276 7.81005 5.20721 7.81004 5.48808 8.06048L8.21427 10.4913V1.67185C8.21427 1.36407 7.97442 1.11457 7.67855 1.11457H2.32141ZM0.714268 1.67185C0.714268 0.748513 1.43381 0 2.32141 0H7.67855C8.56615 0 9.2857 0.748514 9.2857 1.67185V11.2183C9.2857 11.8849 8.53411 12.2445 8.0476 11.8107L4.99998 9.09324L1.95236 11.8107C1.46586 12.2445 0.714268 11.8849 0.714268 11.2183V1.67185Z" fill="#D9D9D9"/>
</svg>
