<svg width="28" height="28" viewBox="0 0 28 28" fill="none" xmlns="http://www.w3.org/2000/svg">
<g clip-path="url(#clip0_557_811)">
<path d="M17.0205 23.9255H10.9678V15.7704C10.9678 15.2029 11.3314 14.8327 11.871 14.8327H16.129C16.6687 14.8327 17.0205 15.2029 17.0205 15.7704V23.9255ZM3.65984 23.1853C3.65984 24.9002 4.64517 25.9119 6.29913 25.9119H21.7243C23.3784 25.9119 24.3519 24.9002 24.3519 23.1853V13.414L14.7097 4.91341C14.264 4.51861 13.736 4.53096 13.3021 4.91341L3.65984 13.414V23.1853ZM0 12.1802C0 12.686 0.375367 13.1673 1.0088 13.1673C1.33724 13.1673 1.60704 12.9822 1.85338 12.7725L13.5954 2.4089C13.8534 2.16215 14.1701 2.16215 14.4282 2.4089L26.1701 12.7725C26.4047 12.9822 26.6745 13.1673 27.003 13.1673C27.5544 13.1673 28 12.8095 28 12.2172C28 11.8471 27.8828 11.6003 27.6364 11.3783L15.4253 0.582948C14.5572 -0.194316 13.478 -0.194316 12.5983 0.582948L0.375367 11.3783C0.117302 11.6003 0 11.8964 0 12.1802ZM21.4077 6.616L24.3519 9.23155V3.53161C24.3519 2.98876 24.0235 2.64332 23.5074 2.64332H22.2523C21.7479 2.64332 21.4077 2.98876 21.4077 3.53161V6.616Z" fill="#438EFF"/>
</g>
<defs>
<clipPath id="clip0_557_811">
<rect width="28" height="28" fill="white"/>
</clipPath>
</defs>
</svg>
