<svg width="95" height="17" viewBox="0 0 95 17" fill="none" xmlns="http://www.w3.org/2000/svg">
<path d="M10.6684 13.24C10.6684 14.18 10.2084 14.9367 9.28836 15.51C8.36836 16.0767 7.09169 16.36 5.45836 16.36C3.93836 16.36 2.74503 16.0533 1.87836 15.44C1.01169 14.82 0.578359 13.9467 0.578359 12.82C0.578359 12.1467 0.765026 11.6033 1.13836 11.19C1.51836 10.77 2.01503 10.56 2.62836 10.56C3.20836 10.56 3.68503 10.7467 4.05836 11.12C4.43169 11.4933 4.61836 12.0267 4.61836 12.72V13.66C4.61836 14.04 4.69503 14.33 4.84836 14.53C5.00836 14.73 5.24169 14.83 5.54836 14.83C5.84169 14.83 6.06169 14.75 6.20836 14.59C6.36169 14.43 6.43836 14.2067 6.43836 13.92C6.43836 13.6267 6.37503 13.3533 6.24836 13.1C6.12169 12.84 5.97169 12.5567 5.79836 12.25C5.63169 11.9433 5.48503 11.5833 5.35836 11.17C5.23169 10.75 5.16836 10.24 5.16836 9.64V5.14C5.16836 4.88 5.10503 4.69333 4.97836 4.58C4.85169 4.46 4.67503 4.36 4.44836 4.28L3.97836 4.11C3.72503 4.01667 3.54169 3.87667 3.42836 3.69C3.32169 3.49667 3.26836 3.27333 3.26836 3.02C3.26836 2.70667 3.36169 2.46 3.54836 2.28C3.73503 2.09333 4.02503 2 4.41836 2H10.1584C10.5517 2 10.8417 2.09333 11.0284 2.28C11.215 2.46 11.3084 2.70667 11.3084 3.02C11.3084 3.51333 11.0884 3.87667 10.6484 4.11L10.3284 4.28C10.1817 4.36 10.0584 4.46 9.95836 4.58C9.85836 4.69333 9.80836 4.88 9.80836 5.14V9.18C9.80836 9.70667 9.85169 10.15 9.93836 10.51C10.025 10.87 10.125 11.1867 10.2384 11.46C10.3517 11.7333 10.4517 12.0067 10.5384 12.28C10.625 12.5533 10.6684 12.8733 10.6684 13.24ZM18.4096 6.06C19.5496 6.06 20.5429 6.28 21.3896 6.72C22.2363 7.15333 22.8929 7.75667 23.3596 8.53C23.8263 9.30333 24.0596 10.2 24.0596 11.22C24.0596 12.1733 23.8163 13.0333 23.3296 13.8C22.8429 14.56 22.1629 15.1633 21.2896 15.61C20.4163 16.0567 19.4029 16.28 18.2496 16.28C17.1163 16.28 16.1263 16.0633 15.2796 15.63C14.4329 15.1967 13.7729 14.59 13.2996 13.81C12.8329 13.03 12.5996 12.12 12.5996 11.08C12.5996 10.1533 12.8429 9.31 13.3296 8.55C13.8163 7.79 14.4929 7.18667 15.3596 6.74C16.2329 6.28667 17.2496 6.06 18.4096 6.06ZM19.1596 14.16C19.3729 14.1 19.5363 13.93 19.6496 13.65C19.7696 13.37 19.8263 12.9933 19.8196 12.52C19.8129 12.04 19.7229 11.48 19.5496 10.84C19.3696 10.16 19.1663 9.61333 18.9396 9.2C18.7129 8.78 18.4796 8.48333 18.2396 8.31C17.9996 8.13667 17.7696 8.08333 17.5496 8.15C17.3496 8.20333 17.1863 8.36333 17.0596 8.63C16.9396 8.89667 16.8796 9.26667 16.8796 9.74C16.8863 10.2133 16.9796 10.7933 17.1596 11.48C17.3396 12.16 17.5396 12.7067 17.7596 13.12C17.9863 13.5333 18.2196 13.8267 18.4596 14C18.7063 14.1667 18.9396 14.22 19.1596 14.16ZM30.0005 1.8V15.26L28.3405 15.82C27.9939 15.94 27.6705 16.0433 27.3705 16.13C27.0705 16.2167 26.7739 16.26 26.4805 16.26C26.2739 16.26 26.1005 16.1967 25.9605 16.07C25.8272 15.9433 25.7605 15.76 25.7605 15.52V4.74C25.7605 4.44 25.7239 4.23667 25.6505 4.13C25.5772 4.01667 25.4805 3.92667 25.3605 3.86L25.2205 3.78C25.0739 3.69333 24.9539 3.59333 24.8605 3.48C24.7672 3.36 24.7205 3.20667 24.7205 3.02C24.7205 2.80667 24.7839 2.62667 24.9105 2.48C25.0372 2.33333 25.2405 2.20667 25.5205 2.1L27.6405 1.28C27.9805 1.14667 28.2605 1.05 28.4805 0.99C28.7005 0.929999 28.9339 0.899999 29.1805 0.899999C29.4339 0.899999 29.6339 0.986666 29.7805 1.16C29.9272 1.32667 30.0005 1.54 30.0005 1.8ZM29.2605 9.86L28.5405 9.06C29.1139 8.12667 29.7572 7.39333 30.4705 6.86C31.1839 6.32667 32.0005 6.06 32.9205 6.06C33.7139 6.06 34.4239 6.26333 35.0505 6.67C35.6772 7.07667 36.1705 7.64 36.5305 8.36C36.8972 9.07333 37.0805 9.9 37.0805 10.84C37.0805 11.9267 36.8572 12.88 36.4105 13.7C35.9639 14.5133 35.3539 15.1467 34.5805 15.6C33.8072 16.0533 32.9339 16.28 31.9605 16.28C31.1539 16.28 30.4472 16.11 29.8405 15.77C29.2405 15.4233 28.7205 14.9 28.2805 14.2L29.4205 12.88C29.6739 13.36 29.9372 13.6867 30.2105 13.86C30.4839 14.0333 30.7739 14.12 31.0805 14.12C31.4005 14.12 31.6805 14.0133 31.9205 13.8C32.1672 13.5867 32.3572 13.2733 32.4905 12.86C32.6305 12.44 32.7005 11.9267 32.7005 11.32C32.7005 10.68 32.6239 10.1533 32.4705 9.74C32.3172 9.32667 32.1072 9.02 31.8405 8.82C31.5805 8.62 31.2872 8.52 30.9605 8.52C30.6205 8.52 30.3072 8.62667 30.0205 8.84C29.7339 9.04667 29.4805 9.38667 29.2605 9.86ZM44.4084 9.13C45.0617 9.13 45.2617 9.47667 45.0084 10.17L44.6984 11.03C44.585 11.3567 44.4484 11.58 44.2884 11.7C44.135 11.8133 43.9317 11.87 43.6784 11.87H38.7684C38.115 11.87 37.915 11.5233 38.1684 10.83L38.4784 9.97C38.5917 9.64333 38.725 9.42333 38.8784 9.31C39.0384 9.19 39.245 9.13 39.4984 9.13H44.4084ZM59.6552 15.32C59.6552 15.6867 59.5686 15.9567 59.3952 16.13C59.2286 16.31 58.9686 16.4 58.6152 16.4C58.4019 16.4 58.2152 16.35 58.0552 16.25C57.8952 16.15 57.7486 16.0367 57.6152 15.91C57.4886 15.7833 57.3619 15.67 57.2352 15.57C57.1086 15.47 56.9686 15.42 56.8152 15.42C56.6552 15.42 56.4686 15.47 56.2552 15.57C56.0419 15.6633 55.7919 15.7767 55.5052 15.91C55.2186 16.0367 54.8852 16.1467 54.5052 16.24C54.1252 16.34 53.6886 16.39 53.1952 16.39C52.0952 16.39 51.1119 16.2167 50.2452 15.87C49.3852 15.5233 48.6552 15.0267 48.0552 14.38C47.4552 13.7333 46.9986 12.9567 46.6852 12.05C46.3719 11.1433 46.2152 10.1267 46.2152 9C46.2152 7.95333 46.4019 6.98333 46.7752 6.09C47.1552 5.19 47.6819 4.40333 48.3552 3.73C49.0286 3.05667 49.8119 2.53333 50.7052 2.16C51.5986 1.78667 52.5619 1.6 53.5952 1.6C54.2752 1.6 54.8286 1.65 55.2552 1.75C55.6819 1.85 56.0319 1.95 56.3052 2.05C56.5786 2.15 56.8219 2.2 57.0352 2.2C57.2219 2.2 57.3819 2.15333 57.5152 2.06C57.6552 1.96667 57.7886 1.87333 57.9152 1.78C58.0486 1.68667 58.1952 1.64 58.3552 1.64C58.6352 1.64 58.8286 1.71667 58.9352 1.87C59.0486 2.02333 59.1552 2.27667 59.2552 2.63L60.1752 5.81C60.2619 6.11 60.2186 6.36333 60.0452 6.57C59.8786 6.77667 59.6419 6.90667 59.3352 6.96C59.0819 7 58.8419 6.97 58.6152 6.87C58.3952 6.77 58.2052 6.56 58.0452 6.24C57.6986 5.54 57.3186 4.99333 56.9052 4.6C56.4919 4.20667 56.0619 3.93333 55.6152 3.78C55.1686 3.62 54.7152 3.54 54.2552 3.54C53.5619 3.54 52.9619 3.73333 52.4552 4.12C51.9486 4.50667 51.5552 5.06333 51.2752 5.79C51.0019 6.51667 50.8652 7.39333 50.8652 8.42C50.8652 9.58667 51.0386 10.5833 51.3852 11.41C51.7319 12.23 52.1886 12.86 52.7552 13.3C53.3219 13.74 53.9352 13.96 54.5952 13.96C54.7752 13.96 54.9252 13.9433 55.0452 13.91C55.1719 13.8767 55.2719 13.83 55.3452 13.77C55.4186 13.7033 55.4719 13.62 55.5052 13.52C55.5386 13.42 55.5552 13.3067 55.5552 13.18V11.59C55.5552 11.3967 55.5119 11.26 55.4252 11.18C55.3386 11.1 55.2086 11.02 55.0352 10.94L54.7152 10.79C54.4619 10.67 54.2552 10.5367 54.0952 10.39C53.9352 10.2367 53.8552 10.03 53.8552 9.77C53.8552 9.47 53.9486 9.23333 54.1352 9.06C54.3219 8.88667 54.6119 8.8 55.0052 8.8H59.8552C60.2552 8.8 60.5452 8.88667 60.7252 9.06C60.9119 9.23333 61.0052 9.46667 61.0052 9.76C61.0052 10 60.9486 10.1967 60.8352 10.35C60.7286 10.5033 60.5686 10.6333 60.3552 10.74L60.1752 10.83C60.0352 10.8967 59.9119 10.9833 59.8052 11.09C59.7052 11.19 59.6552 11.3567 59.6552 11.59V15.32ZM68.3437 16.3C67.8903 16.3 67.497 16.2733 67.1637 16.22C66.837 16.1733 66.557 16.1233 66.3237 16.07C66.0903 16.0233 65.897 16 65.7437 16C65.557 16 65.3937 16.0167 65.2537 16.05C65.1137 16.09 64.9837 16.1333 64.8637 16.18C64.7503 16.2267 64.637 16.2667 64.5237 16.3C64.417 16.34 64.3003 16.36 64.1737 16.36C63.847 16.36 63.6037 16.2767 63.4437 16.11C63.2837 15.9433 63.1637 15.6667 63.0837 15.28L62.5437 12.72C62.4903 12.4467 62.5203 12.2133 62.6337 12.02C62.7537 11.82 62.947 11.68 63.2137 11.6C63.487 11.5133 63.747 11.5233 63.9937 11.63C64.2403 11.73 64.467 11.9433 64.6737 12.27C64.9803 12.7433 65.3037 13.1233 65.6437 13.41C65.9903 13.69 66.357 13.8933 66.7437 14.02C67.137 14.14 67.557 14.2 68.0037 14.2C68.537 14.2 68.9603 14.09 69.2737 13.87C69.587 13.65 69.7437 13.3567 69.7437 12.99C69.7437 12.7567 69.687 12.5533 69.5737 12.38C69.4603 12.2 69.2703 12.04 69.0037 11.9C68.737 11.76 68.3703 11.6267 67.9037 11.5C66.4437 11.1067 65.307 10.6467 64.4937 10.12C63.687 9.58667 63.1203 8.99333 62.7937 8.34C62.467 7.68667 62.3037 6.98 62.3037 6.22C62.3037 5.36 62.5103 4.59333 62.9237 3.92C63.337 3.24 63.927 2.70667 64.6937 2.32C65.467 1.93333 66.3837 1.74 67.4437 1.74C67.9903 1.74 68.4503 1.78333 68.8237 1.87C69.2037 1.95 69.527 2.03333 69.7937 2.12C70.067 2.2 70.317 2.24 70.5437 2.24C70.7237 2.24 70.8737 2.19333 70.9937 2.1C71.1137 2.00667 71.237 1.91333 71.3637 1.82C71.497 1.72667 71.6703 1.68 71.8837 1.68C72.177 1.68 72.4203 1.78333 72.6137 1.99C72.807 2.19 72.9903 2.56667 73.1637 3.12L74.0037 5.73C74.117 6.08333 74.097 6.38667 73.9437 6.64C73.797 6.89333 73.5603 7.05667 73.2337 7.13C72.9537 7.19 72.707 7.16333 72.4937 7.05C72.287 6.93667 72.1037 6.72667 71.9437 6.42C71.6503 5.85333 71.287 5.38333 70.8537 5.01C70.427 4.63 69.9703 4.34667 69.4837 4.16C68.997 3.97333 68.517 3.88 68.0437 3.88C67.557 3.88 67.177 3.99667 66.9037 4.23C66.637 4.45667 66.5037 4.74333 66.5037 5.09C66.5037 5.37667 66.587 5.62667 66.7537 5.84C66.9203 6.05333 67.1603 6.24 67.4737 6.4C67.7937 6.55333 68.177 6.69333 68.6237 6.82C69.9703 7.19333 71.0137 7.64333 71.7537 8.17C72.5003 8.69 73.0203 9.26333 73.3137 9.89C73.6137 10.5167 73.7637 11.1733 73.7637 11.86C73.7637 12.6867 73.547 13.4367 73.1137 14.11C72.6803 14.7767 72.057 15.31 71.2437 15.71C70.437 16.1033 69.4703 16.3 68.3437 16.3ZM85.8782 12.26L83.8582 12.32L87.1282 3.88C87.4015 3.18 87.6949 2.69333 88.0082 2.42C88.3215 2.14 88.7682 2 89.3482 2H92.8782C93.2715 2 93.5615 2.09333 93.7482 2.28C93.9349 2.46 94.0282 2.70667 94.0282 3.02C94.0282 3.29333 93.9682 3.51667 93.8482 3.69C93.7282 3.86333 93.5715 4.00333 93.3782 4.11L93.0582 4.28C92.8915 4.36667 92.7549 4.46667 92.6482 4.58C92.5482 4.69333 92.5082 4.88 92.5282 5.14L93.0682 12.86C93.0882 13.12 93.1349 13.3067 93.2082 13.42C93.2815 13.5333 93.3982 13.6333 93.5582 13.72L93.8782 13.89C94.0582 13.9833 94.2015 14.1133 94.3082 14.28C94.4149 14.4467 94.4682 14.66 94.4682 14.92C94.4682 15.24 94.3749 15.5 94.1882 15.7C94.0015 15.9 93.7115 16 93.3182 16H88.1282C87.7349 16 87.4449 15.91 87.2582 15.73C87.0715 15.5433 86.9782 15.2933 86.9782 14.98C86.9782 14.7333 87.0315 14.5233 87.1382 14.35C87.2449 14.17 87.4115 14.0167 87.6382 13.89L87.9582 13.72C88.1315 13.6267 88.2649 13.5267 88.3582 13.42C88.4582 13.3067 88.4982 13.12 88.4782 12.86L87.7582 3.82L89.4082 3.8L85.4282 14.04C85.1615 14.7333 84.9082 15.1867 84.6682 15.4C84.4282 15.6067 84.1215 15.71 83.7482 15.71C83.4815 15.71 83.2415 15.6767 83.0282 15.61C82.8215 15.5367 82.6249 15.3767 82.4382 15.13C82.2515 14.8767 82.0515 14.48 81.8382 13.94L77.9982 4.26L79.4482 4.12L78.7482 12.86C78.7215 13.1467 78.7615 13.3467 78.8682 13.46C78.9749 13.5733 79.1115 13.6867 79.2782 13.8L79.5982 14.02C79.7315 14.1067 79.8382 14.2267 79.9182 14.38C80.0049 14.5267 80.0482 14.7133 80.0482 14.94C80.0482 15.2667 79.9549 15.5267 79.7682 15.72C79.5815 15.9067 79.2915 16 78.8982 16H76.2782C75.8849 16 75.5949 15.91 75.4082 15.73C75.2215 15.5433 75.1282 15.2933 75.1282 14.98C75.1282 14.6733 75.1982 14.44 75.3382 14.28C75.4782 14.1133 75.6615 13.9667 75.8882 13.84L76.1082 13.72C76.2549 13.64 76.3715 13.5433 76.4582 13.43C76.5515 13.31 76.6082 13.12 76.6282 12.86L77.2582 5.14C77.2782 4.88 77.2382 4.69333 77.1382 4.58C77.0449 4.46667 76.9115 4.36667 76.7382 4.28L76.4182 4.11C76.2182 4.00333 76.0582 3.86333 75.9382 3.69C75.8182 3.51667 75.7582 3.29333 75.7582 3.02C75.7582 2.34 76.1415 2 76.9082 2H80.3782C80.9715 2 81.4215 2.15 81.7282 2.45C82.0349 2.75 82.3182 3.22667 82.5782 3.88L85.8782 12.26Z" fill="#438EFF"/>
</svg>
