<svg width="28" height="28" viewBox="0 0 28 28" fill="none" xmlns="http://www.w3.org/2000/svg">
<path d="M1.76101 21.5846C1.76101 22.3281 1.98742 22.9277 2.40251 23.3593V26.3931C2.40251 27.2806 3.1195 27.9761 4.06289 27.9761H5.54716C6.49056 27.9761 7.22012 27.2806 7.22012 26.3931V24.4626C9.29559 24.5945 11.5723 24.6664 13.9999 24.6664C16.4277 24.6664 18.7169 24.5945 20.7925 24.4626V26.3931C20.7925 27.2806 21.5094 27.9761 22.4528 27.9761H23.9371C24.8805 27.9761 25.61 27.2806 25.61 26.3931V23.3593C26.0252 22.9277 26.2516 22.3281 26.2516 21.5846V3.08181C26.2516 1.53491 25.2956 0.647539 23.5848 0.455676C20.9559 0.155889 17.4591 0 13.9999 0C10.5409 0 7.03144 0.167881 4.41509 0.455676C2.7044 0.647539 1.76101 1.53491 1.76101 3.08181V21.5846ZM13.9999 23.0955C10.3019 23.0955 7.16981 22.9396 4.85534 22.6758C3.78616 22.5559 3.4088 22.0284 3.4088 21.105V3.56146C3.4088 2.65011 3.91195 2.0985 4.85534 1.99058C7.11949 1.72677 10.4654 1.57088 13.9999 1.57088C17.4969 1.57088 20.8427 1.72677 23.1447 1.99058C24.2138 2.1105 24.6038 2.63812 24.6038 3.56146V21.105C24.6038 22.0284 24.2138 22.5559 23.1447 22.6758C20.7925 22.9396 17.6603 23.0955 13.9999 23.0955ZM5.86163 16.3684C10.7673 17.0998 17.2076 17.1117 22.151 16.3684C22.9434 16.2365 23.3208 15.8168 23.3208 15.0133V4.70064C23.3208 3.80129 22.893 3.30964 21.9874 3.2257C17.0189 2.74605 11.0189 2.75803 6.03773 3.2257C5.14465 3.30964 4.69182 3.80129 4.69182 4.70064V15.0133C4.69182 15.8168 5.08175 16.2365 5.86163 16.3684ZM2.57861 11.4638V4.43684H1.19497C0.490565 4.43684 0 4.85654 0 5.49209V10.4206C0 11.0561 0.490565 11.4638 1.19497 11.4638H2.57861ZM25.4213 11.4638H26.8049C27.5094 11.4638 28 11.0561 28 10.4206V5.49209C28 4.85654 27.5094 4.43684 26.8049 4.43684H25.4213V11.4638ZM6.81761 21.2368C7.68553 21.2368 8.33962 20.6013 8.33962 19.7859C8.33962 18.9585 7.68553 18.3349 6.81761 18.3349C5.94968 18.3349 5.2956 18.9585 5.2956 19.7859C5.2956 20.6013 5.94968 21.2368 6.81761 21.2368ZM11.0063 20.8052H16.9811C17.6226 20.8052 18.0755 20.3735 18.0755 19.762C18.0755 19.1383 17.6226 18.7186 16.9811 18.7186H11.0063C10.3522 18.7186 9.89937 19.1383 9.89937 19.762C9.89937 20.3735 10.3522 20.8052 11.0063 20.8052ZM21.1824 21.2368C22.0502 21.2368 22.7169 20.6013 22.7169 19.7859C22.7169 18.9585 22.0502 18.3349 21.1824 18.3349C20.327 18.3349 19.6729 18.9585 19.6729 19.7859C19.6729 20.6013 20.327 21.2368 21.1824 21.2368Z" fill="#438EFF"/>
</svg>
