<svg width="23" height="24" viewBox="0 0 23 24" fill="none" xmlns="http://www.w3.org/2000/svg">
<path d="M6.30204 17.6298C9.88725 21.2255 14.2416 24 17.8021 24C19.4023 24 20.8042 23.44 21.933 22.1959C22.5906 21.4618 23 20.6034 23 19.7573C23 19.1352 22.7642 18.5381 22.1811 18.1151L18.3727 15.4027C17.7896 15.0046 17.3057 14.8056 16.8592 14.8056C16.3009 14.8056 15.7923 15.129 15.2216 15.689L14.3409 16.5598C14.2043 16.6967 14.0307 16.7589 13.8695 16.7589C13.6834 16.7589 13.4973 16.6842 13.3732 16.6221C12.6041 16.2114 11.2891 15.0792 10.0609 13.86C8.84518 12.6407 7.71628 11.3219 7.3193 10.5505C7.25727 10.4136 7.18284 10.2394 7.18284 10.0528C7.18284 9.89108 7.23246 9.72934 7.36892 9.59249L8.24972 8.68424C8.79556 8.11193 9.13051 7.61425 9.13051 7.04193C9.13051 6.59404 8.91961 6.10881 8.51024 5.52406L5.84303 1.75422C5.40883 1.15703 4.80097 0.895752 4.13106 0.895752C3.31229 0.895752 2.46871 1.269 1.73679 1.97817C0.53344 3.13526 0 4.56604 0 6.14614C0 9.71689 2.71682 14.0466 6.30204 17.6298Z" fill="#438EFF"/>
</svg>
