<svg width="47" height="23" viewBox="0 0 47 23" fill="none" xmlns="http://www.w3.org/2000/svg">
<g clip-path="url(#clip0_554_782)">
<path d="M15.6833 23H31.3417C33.299 23 33.9971 22.4347 33.9971 21.3293C33.9971 18.0885 29.9703 13.6165 23.5125 13.6165C17.0422 13.6165 13.0154 18.0885 13.0154 21.3293C13.0154 22.4347 13.7135 23 15.6833 23ZM23.5125 11.3681C26.1929 11.3681 28.4992 8.95631 28.4992 5.81595C28.4992 2.7133 26.1804 0.414551 23.5125 0.414551C20.857 0.414551 18.5257 2.76354 18.5382 5.84109C18.5382 8.95631 20.8445 11.3681 23.5125 11.3681ZM2.19416 23H11.6565C10.3599 21.1031 11.9432 17.2845 14.636 15.1993C13.2398 14.2699 11.457 13.5789 9.13819 13.5789C3.51565 13.5789 0 17.7619 0 21.2414C0 22.3719 0.610876 23 2.19416 23ZM9.13819 11.657C11.4695 11.657 13.4766 9.54671 13.4766 6.82087C13.4766 4.12016 11.457 2.1229 9.13819 2.1229C6.83183 2.1229 4.78727 4.17042 4.79974 6.846C4.79974 9.54671 6.81937 11.657 9.13819 11.657ZM44.8059 23C46.3891 23 47 22.3719 47 21.2414C47 17.7619 43.4844 13.5789 37.8618 13.5789C35.5305 13.5789 33.7477 14.2699 32.364 15.1993C35.0443 17.2845 36.6276 21.1031 35.3311 23H44.8059ZM37.8493 11.657C40.1806 11.657 42.2002 9.54671 42.2002 6.846C42.2002 4.17042 40.1681 2.1229 37.8493 2.1229C35.543 2.1229 33.5109 4.12016 33.5109 6.82087C33.5109 9.54671 35.5305 11.657 37.8493 11.657Z" fill="#438EFF"/>
</g>
<defs>
<clipPath id="clip0_554_782">
<rect width="47" height="23" fill="white"/>
</clipPath>
</defs>
</svg>
