<svg width="21" height="21" viewBox="0 0 21 21" fill="none" xmlns="http://www.w3.org/2000/svg">
<g clip-path="url(#clip0_43_73)">
<path d="M10.5 20.4561C15.9492 20.4561 20.4609 15.9346 20.4609 10.4951C20.4609 5.0459 15.9394 0.53418 10.4902 0.53418C5.05077 0.53418 0.539047 5.0459 0.539047 10.4951C0.539047 15.9346 5.06053 20.4561 10.5 20.4561ZM10.5 18.7959C5.89061 18.7959 2.20897 15.1045 2.20897 10.4951C2.20897 5.88574 5.88085 2.19434 10.4902 2.19434C15.0995 2.19434 18.8007 5.88574 18.8007 10.4951C18.8007 15.1045 15.1093 18.7959 10.5 18.7959ZM17.1796 16.9307L17.1503 16.8233C16.6718 15.3877 14.0937 13.8154 10.5 13.8154C6.916 13.8154 4.33788 15.3877 3.8496 16.8135L3.8203 16.9307C5.57811 18.669 8.59569 19.6846 10.5 19.6846C12.414 19.6846 15.4023 18.6787 17.1796 16.9307ZM10.5 12.1553C12.3847 12.1748 13.8495 10.5733 13.8495 8.47363C13.8495 6.50098 12.3749 4.87012 10.5 4.87012C8.62499 4.87012 7.14061 6.50098 7.15038 8.47363C7.16014 10.5733 8.62499 12.1358 10.5 12.1553Z" fill="#959595"/>
</g>
<defs>
<clipPath id="clip0_43_73">
<rect width="19.9219" height="19.9316" fill="white" transform="translate(0.539047 0.53418)"/>
</clipPath>
</defs>
</svg>
