<svg width="26" height="26" viewBox="0 0 26 26" fill="none" xmlns="http://www.w3.org/2000/svg">
<path d="M4.43456 26.0001H21.5655C24.5313 26.0001 26 24.533 26 21.6269V4.40164C26 1.4955 24.5313 0.0283203 21.5655 0.0283203H4.43456C1.48289 0.0283203 0 1.48139 0 4.40164V21.6269C0 24.5471 1.48289 26.0001 4.43456 26.0001ZM6.75069 12.7109C6.75069 12.2877 7.06138 11.9915 7.45682 11.9915H8.10647L7.40034 7.44885C7.37209 7.30777 7.34383 7.1667 7.34383 6.99741C7.34383 6.47543 7.73928 6.15096 8.27595 6.15096C8.74199 6.15096 9.13743 6.41901 9.20805 6.92687L9.82946 11.9915H11.0723L11.8914 7.11028C11.9902 6.48955 12.4422 6.15096 12.993 6.15096C13.5296 6.15096 14.0098 6.48955 14.0945 7.09616L14.9278 11.9774H16.1989L16.8485 6.91277C16.9191 6.40489 17.3146 6.13686 17.7665 6.13686C18.289 6.13686 18.6844 6.44722 18.6844 6.95508C18.6844 7.12438 18.6562 7.23724 18.628 7.37831L17.9077 11.9774H18.5432C18.9668 11.9774 19.2634 12.2736 19.2634 12.6968C19.2634 13.0918 18.9668 13.4304 18.5432 13.4304H17.6676L16.7496 19.3132C16.6648 19.8916 16.2271 20.2161 15.7186 20.2161C15.1819 20.2161 14.7583 19.9199 14.6594 19.3273L13.6567 13.4304H12.3574L11.3829 19.3273C11.2841 19.9199 10.8604 20.2161 10.3237 20.2161C9.8012 20.2161 9.37753 19.8916 9.29278 19.3132L8.34655 13.4445H7.45682C7.06138 13.4445 6.75069 13.106 6.75069 12.7109ZM10.0272 13.4163L10.3661 16.8303L10.8604 13.4163H10.0272ZM12.6116 11.9915H13.4308L13.0071 9.14174L12.6116 11.9915ZM15.1397 13.4163L15.6622 16.915L16.0435 13.4163H15.1397Z" fill="#438EFF"/>
</svg>
