<svg width="13" height="17" viewBox="0 0 13 17" fill="none" xmlns="http://www.w3.org/2000/svg">
<path d="M0.992188 16.0234V1.66406C0.992188 0.710938 1.64844 0.0703125 2.625 0.0703125H11.2656C12.25 0.0703125 12.8984 0.710938 12.8984 1.66406V16.0234C12.8984 16.3672 12.6172 16.6484 12.2734 16.6484C11.9219 16.6484 11.6406 16.3672 11.6406 16.0234V1.74219C11.6406 1.49219 11.4766 1.32812 11.2422 1.32812H2.64844C2.41406 1.32812 2.25 1.49219 2.25 1.74219V16.0234C2.25 16.3672 1.96875 16.6484 1.61719 16.6484C1.27344 16.6484 0.992188 16.3672 0.992188 16.0234ZM3.16406 16.2031V2.40625C3.16406 2.25 3.28906 2.17188 3.4375 2.23438L5.89844 3.32812C6.08594 3.40625 6.16406 3.47656 6.16406 3.67188V14.9297C6.16406 15.1328 6.08594 15.1953 5.89062 15.2812L3.4375 16.3672C3.28906 16.4297 3.16406 16.3516 3.16406 16.2031Z" fill="#FF7E7E"/>
</svg>
