<svg width="24" height="22" viewBox="0 0 24 22" fill="none" xmlns="http://www.w3.org/2000/svg">
<g clip-path="url(#clip0_549_778)">
<path d="M3.78124 22.0001H20.2307C22.7476 22.0001 24 20.7586 24 18.2996V3.72443C24 1.26539 22.7476 0.0239258 20.2307 0.0239258H3.78124C1.26442 0.0239258 0 1.25345 0 3.72443V18.2996C0 20.7706 1.26442 22.0001 3.78124 22.0001ZM3.6006 20.0783C2.52885 20.0783 1.93879 19.5172 1.93879 18.4071V7.15037C1.93879 6.05215 2.52885 5.47917 3.6006 5.47917H20.3873C21.459 5.47917 22.0612 6.05215 22.0612 7.15037V18.4071C22.0612 19.5172 21.459 20.0783 20.3873 20.0783H3.6006ZM9.6578 9.76459H10.3683C10.7898 9.76459 10.9222 9.64521 10.9222 9.22743V8.52314C10.9222 8.10534 10.7898 7.97403 10.3683 7.97403H9.6578C9.23632 7.97403 9.09182 8.10534 9.09182 8.52314V9.22743C9.09182 9.64521 9.23632 9.76459 9.6578 9.76459ZM13.6558 9.76459H14.3663C14.7878 9.76459 14.9323 9.64521 14.9323 9.22743V8.52314C14.9323 8.10534 14.7878 7.97403 14.3663 7.97403H13.6558C13.2343 7.97403 13.0898 8.10534 13.0898 8.52314V9.22743C13.0898 9.64521 13.2343 9.76459 13.6558 9.76459ZM17.6538 9.76459H18.3643C18.7858 9.76459 18.9303 9.64521 18.9303 9.22743V8.52314C18.9303 8.10534 18.7858 7.97403 18.3643 7.97403H17.6538C17.2323 7.97403 17.0999 8.10534 17.0999 8.52314V9.22743C17.0999 9.64521 17.2323 9.76459 17.6538 9.76459ZM5.6598 13.668H6.35825C6.79176 13.668 6.92423 13.5487 6.92423 13.1309V12.4265C6.92423 12.0088 6.79176 11.8894 6.35825 11.8894H5.6598C5.22629 11.8894 5.09383 12.0088 5.09383 12.4265V13.1309C5.09383 13.5487 5.22629 13.668 5.6598 13.668ZM9.6578 13.668H10.3683C10.7898 13.668 10.9222 13.5487 10.9222 13.1309V12.4265C10.9222 12.0088 10.7898 11.8894 10.3683 11.8894H9.6578C9.23632 11.8894 9.09182 12.0088 9.09182 12.4265V13.1309C9.09182 13.5487 9.23632 13.668 9.6578 13.668ZM13.6558 13.668H14.3663C14.7878 13.668 14.9323 13.5487 14.9323 13.1309V12.4265C14.9323 12.0088 14.7878 11.8894 14.3663 11.8894H13.6558C13.2343 11.8894 13.0898 12.0088 13.0898 12.4265V13.1309C13.0898 13.5487 13.2343 13.668 13.6558 13.668ZM17.6538 13.668H18.3643C18.7858 13.668 18.9303 13.5487 18.9303 13.1309V12.4265C18.9303 12.0088 18.7858 11.8894 18.3643 11.8894H17.6538C17.2323 11.8894 17.0999 12.0088 17.0999 12.4265V13.1309C17.0999 13.5487 17.2323 13.668 17.6538 13.668ZM5.6598 17.5834H6.35825C6.79176 17.5834 6.92423 17.452 6.92423 17.0342V16.33C6.92423 15.9122 6.79176 15.7928 6.35825 15.7928H5.6598C5.22629 15.7928 5.09383 15.9122 5.09383 16.33V17.0342C5.09383 17.452 5.22629 17.5834 5.6598 17.5834ZM9.6578 17.5834H10.3683C10.7898 17.5834 10.9222 17.452 10.9222 17.0342V16.33C10.9222 15.9122 10.7898 15.7928 10.3683 15.7928H9.6578C9.23632 15.7928 9.09182 15.9122 9.09182 16.33V17.0342C9.09182 17.452 9.23632 17.5834 9.6578 17.5834ZM13.6558 17.5834H14.3663C14.7878 17.5834 14.9323 17.452 14.9323 17.0342V16.33C14.9323 15.9122 14.7878 15.7928 14.3663 15.7928H13.6558C13.2343 15.7928 13.0898 15.9122 13.0898 16.33V17.0342C13.0898 17.452 13.2343 17.5834 13.6558 17.5834Z" fill="#438EFF"/>
</g>
<defs>
<clipPath id="clip0_549_778">
<rect width="24" height="22" fill="white"/>
</clipPath>
</defs>
</svg>
