<svg width="152" height="26" viewBox="0 0 152 26" fill="none" xmlns="http://www.w3.org/2000/svg">
<path d="M17.0694 20.584C17.0694 22.088 16.3334 23.2987 14.8614 24.216C13.3894 25.1227 11.3467 25.576 8.73338 25.576C6.30138 25.576 4.39204 25.0853 3.00538 24.104C1.61871 23.112 0.925375 21.7147 0.925375 19.912C0.925375 18.8347 1.22404 17.9653 1.82138 17.304C2.42938 16.632 3.22404 16.296 4.20538 16.296C5.13338 16.296 5.89604 16.5947 6.49338 17.192C7.09071 17.7893 7.38938 18.6427 7.38938 19.752V21.256C7.38938 21.864 7.51204 22.328 7.75738 22.648C8.01338 22.968 8.38671 23.128 8.87738 23.128C9.34671 23.128 9.69871 23 9.93338 22.744C10.1787 22.488 10.3014 22.1307 10.3014 21.672C10.3014 21.2027 10.2 20.7653 9.99738 20.36C9.79471 19.944 9.55471 19.4907 9.27738 19C9.01071 18.5093 8.77604 17.9333 8.57338 17.272C8.37071 16.6 8.26938 15.784 8.26938 14.824V7.624C8.26938 7.208 8.16804 6.90933 7.96538 6.728C7.76271 6.536 7.48004 6.376 7.11738 6.248L6.36538 5.976C5.96004 5.82667 5.66671 5.60267 5.48538 5.304C5.31471 4.99467 5.22938 4.63733 5.22938 4.232C5.22938 3.73067 5.37871 3.336 5.67738 3.048C5.97604 2.74933 6.44004 2.6 7.06938 2.6H16.2534C16.8827 2.6 17.3467 2.74933 17.6454 3.048C17.944 3.336 18.0934 3.73067 18.0934 4.232C18.0934 5.02133 17.7414 5.60267 17.0374 5.976L16.5254 6.248C16.2907 6.376 16.0934 6.536 15.9334 6.728C15.7734 6.90933 15.6934 7.208 15.6934 7.624V14.088C15.6934 14.9307 15.7627 15.64 15.9014 16.216C16.04 16.792 16.2 17.2987 16.3814 17.736C16.5627 18.1733 16.7227 18.6107 16.8614 19.048C17 19.4853 17.0694 19.9973 17.0694 20.584ZM29.4554 9.096C31.2794 9.096 32.8687 9.448 34.2234 10.152C35.578 10.8453 36.6287 11.8107 37.3754 13.048C38.122 14.2853 38.4954 15.72 38.4954 17.352C38.4954 18.8773 38.106 20.2533 37.3274 21.48C36.5487 22.696 35.4607 23.6613 34.0634 24.376C32.666 25.0907 31.0447 25.448 29.1994 25.448C27.386 25.448 25.802 25.1013 24.4474 24.408C23.0927 23.7147 22.0367 22.744 21.2794 21.496C20.5327 20.248 20.1594 18.792 20.1594 17.128C20.1594 15.6453 20.5487 14.296 21.3274 13.08C22.106 11.864 23.1887 10.8987 24.5754 10.184C25.9727 9.45867 27.5994 9.096 29.4554 9.096ZM30.6554 22.056C30.9967 21.96 31.258 21.688 31.4394 21.24C31.6314 20.792 31.722 20.1893 31.7114 19.432C31.7007 18.664 31.5567 17.768 31.2794 16.744C30.9914 15.656 30.666 14.7813 30.3034 14.12C29.9407 13.448 29.5674 12.9733 29.1834 12.696C28.7994 12.4187 28.4314 12.3333 28.0794 12.44C27.7594 12.5253 27.498 12.7813 27.2954 13.208C27.1034 13.6347 27.0074 14.2267 27.0074 14.984C27.018 15.7413 27.1674 16.6693 27.4554 17.768C27.7434 18.856 28.0634 19.7307 28.4154 20.392C28.778 21.0533 29.1514 21.5227 29.5354 21.8C29.93 22.0667 30.3034 22.152 30.6554 22.056ZM48.0009 2.28V23.816L45.3449 24.712C44.7902 24.904 44.2729 25.0693 43.7929 25.208C43.3129 25.3467 42.8382 25.416 42.3689 25.416C42.0382 25.416 41.7609 25.3147 41.5369 25.112C41.3235 24.9093 41.2169 24.616 41.2169 24.232V6.984C41.2169 6.504 41.1582 6.17867 41.0409 6.008C40.9235 5.82667 40.7689 5.68266 40.5769 5.576L40.3529 5.448C40.1182 5.30933 39.9262 5.14933 39.7769 4.968C39.6275 4.776 39.5529 4.53067 39.5529 4.232C39.5529 3.89067 39.6542 3.60267 39.8569 3.368C40.0595 3.13333 40.3849 2.93067 40.8329 2.76L44.2249 1.448C44.7689 1.23466 45.2169 1.08 45.5689 0.983999C45.9209 0.887999 46.2942 0.839998 46.6889 0.839998C47.0942 0.839998 47.4142 0.978665 47.6489 1.256C47.8835 1.52267 48.0009 1.864 48.0009 2.28ZM46.8169 15.176L45.6649 13.896C46.5822 12.4027 47.6115 11.2293 48.7529 10.376C49.8942 9.52267 51.2009 9.096 52.6729 9.096C53.9422 9.096 55.0782 9.42133 56.0809 10.072C57.0835 10.7227 57.8729 11.624 58.4489 12.776C59.0355 13.9173 59.3289 15.24 59.3289 16.744C59.3289 18.4827 58.9715 20.008 58.2569 21.32C57.5422 22.6213 56.5662 23.6347 55.3289 24.36C54.0915 25.0853 52.6942 25.448 51.1369 25.448C49.8462 25.448 48.7155 25.176 47.7449 24.632C46.7849 24.0773 45.9529 23.24 45.2489 22.12L47.0729 20.008C47.4782 20.776 47.8995 21.2987 48.3369 21.576C48.7742 21.8533 49.2382 21.992 49.7289 21.992C50.2409 21.992 50.6889 21.8213 51.0729 21.48C51.4675 21.1387 51.7715 20.6373 51.9849 19.976C52.2089 19.304 52.3209 18.4827 52.3209 17.512C52.3209 16.488 52.1982 15.6453 51.9529 14.984C51.7075 14.3227 51.3715 13.832 50.9449 13.512C50.5289 13.192 50.0595 13.032 49.5369 13.032C48.9929 13.032 48.4915 13.2027 48.0329 13.544C47.5742 13.8747 47.1689 14.4187 46.8169 15.176ZM71.0534 14.008C72.0987 14.008 72.4187 14.5627 72.0134 15.672L71.5174 17.048C71.336 17.5707 71.1174 17.928 70.8614 18.12C70.616 18.3013 70.2907 18.392 69.8854 18.392H62.0294C60.984 18.392 60.664 17.8373 61.0694 16.728L61.5654 15.352C61.7467 14.8293 61.96 14.4773 62.2054 14.296C62.4614 14.104 62.792 14.008 63.1974 14.008H71.0534ZM95.4484 23.912C95.4484 24.4987 95.3097 24.9307 95.0324 25.208C94.7657 25.496 94.3497 25.64 93.7844 25.64C93.443 25.64 93.1444 25.56 92.8884 25.4C92.6324 25.24 92.3977 25.0587 92.1844 24.856C91.9817 24.6533 91.779 24.472 91.5764 24.312C91.3737 24.152 91.1497 24.072 90.9044 24.072C90.6484 24.072 90.3497 24.152 90.0084 24.312C89.667 24.4613 89.267 24.6427 88.8084 24.856C88.3497 25.0587 87.8164 25.2347 87.2084 25.384C86.6004 25.544 85.9017 25.624 85.1124 25.624C83.3524 25.624 81.779 25.3467 80.3924 24.792C79.0164 24.2373 77.8484 23.4427 76.8884 22.408C75.9284 21.3733 75.1977 20.1307 74.6964 18.68C74.195 17.2293 73.9444 15.6027 73.9444 13.8C73.9444 12.1253 74.243 10.5733 74.8404 9.144C75.4484 7.704 76.291 6.44533 77.3684 5.368C78.4457 4.29067 79.699 3.45333 81.1284 2.856C82.5577 2.25867 84.099 1.96 85.7524 1.96C86.8404 1.96 87.7257 2.04 88.4084 2.2C89.091 2.36 89.651 2.52 90.0884 2.68C90.5257 2.84 90.915 2.92 91.2564 2.92C91.555 2.92 91.811 2.84533 92.0244 2.696C92.2484 2.54667 92.4617 2.39733 92.6644 2.248C92.8777 2.09867 93.1124 2.024 93.3684 2.024C93.8164 2.024 94.1257 2.14666 94.2964 2.392C94.4777 2.63733 94.6484 3.04267 94.8084 3.608L96.2804 8.696C96.419 9.176 96.3497 9.58133 96.0724 9.912C95.8057 10.2427 95.427 10.4507 94.9364 10.536C94.531 10.6 94.147 10.552 93.7844 10.392C93.4324 10.232 93.1284 9.896 92.8724 9.384C92.3177 8.264 91.7097 7.38933 91.0484 6.76C90.387 6.13067 89.699 5.69333 88.9844 5.448C88.2697 5.192 87.5444 5.064 86.8084 5.064C85.699 5.064 84.739 5.37333 83.9284 5.992C83.1177 6.61067 82.4884 7.50133 82.0404 8.664C81.603 9.82667 81.3844 11.2293 81.3844 12.872C81.3844 14.7387 81.6617 16.3333 82.2164 17.656C82.771 18.968 83.5017 19.976 84.4084 20.68C85.315 21.384 86.2964 21.736 87.3524 21.736C87.6404 21.736 87.8804 21.7093 88.0724 21.656C88.275 21.6027 88.435 21.528 88.5524 21.432C88.6697 21.3253 88.755 21.192 88.8084 21.032C88.8617 20.872 88.8884 20.6907 88.8884 20.488V17.944C88.8884 17.6347 88.819 17.416 88.6804 17.288C88.5417 17.16 88.3337 17.032 88.0564 16.904L87.5444 16.664C87.139 16.472 86.8084 16.2587 86.5524 16.024C86.2964 15.7787 86.1684 15.448 86.1684 15.032C86.1684 14.552 86.3177 14.1733 86.6164 13.896C86.915 13.6187 87.379 13.48 88.0084 13.48H95.7684C96.4084 13.48 96.8724 13.6187 97.1604 13.896C97.459 14.1733 97.6084 14.5467 97.6084 15.016C97.6084 15.4 97.5177 15.7147 97.3364 15.96C97.1657 16.2053 96.9097 16.4133 96.5684 16.584L96.2804 16.728C96.0564 16.8347 95.859 16.9733 95.6884 17.144C95.5284 17.304 95.4484 17.5707 95.4484 17.944V23.912ZM109.35 25.48C108.625 25.48 107.995 25.4373 107.462 25.352C106.939 25.2773 106.491 25.1973 106.118 25.112C105.745 25.0373 105.435 25 105.19 25C104.891 25 104.63 25.0267 104.406 25.08C104.182 25.144 103.974 25.2133 103.782 25.288C103.601 25.3627 103.419 25.4267 103.238 25.48C103.067 25.544 102.881 25.576 102.678 25.576C102.155 25.576 101.766 25.4427 101.51 25.176C101.254 24.9093 101.062 24.4667 100.934 23.848L100.07 19.752C99.9845 19.3147 100.033 18.9413 100.214 18.632C100.406 18.312 100.715 18.088 101.142 17.96C101.579 17.8213 101.995 17.8373 102.39 18.008C102.785 18.168 103.147 18.5093 103.478 19.032C103.969 19.7893 104.486 20.3973 105.03 20.856C105.585 21.304 106.171 21.6293 106.79 21.832C107.419 22.024 108.091 22.12 108.806 22.12C109.659 22.12 110.337 21.944 110.838 21.592C111.339 21.24 111.59 20.7707 111.59 20.184C111.59 19.8107 111.499 19.4853 111.318 19.208C111.137 18.92 110.833 18.664 110.406 18.44C109.979 18.216 109.393 18.0027 108.646 17.8C106.31 17.1707 104.491 16.4347 103.19 15.592C101.899 14.7387 100.993 13.7893 100.47 12.744C99.9472 11.6987 99.6859 10.568 99.6859 9.352C99.6859 7.976 100.017 6.74933 100.678 5.672C101.339 4.584 102.283 3.73067 103.51 3.112C104.747 2.49333 106.214 2.184 107.91 2.184C108.785 2.184 109.521 2.25333 110.118 2.392C110.726 2.52 111.243 2.65333 111.67 2.792C112.107 2.92 112.507 2.984 112.87 2.984C113.158 2.984 113.398 2.90933 113.59 2.76C113.782 2.61067 113.979 2.46133 114.182 2.312C114.395 2.16267 114.673 2.088 115.014 2.088C115.483 2.088 115.873 2.25333 116.182 2.584C116.491 2.904 116.785 3.50667 117.062 4.392L118.406 8.568C118.587 9.13333 118.555 9.61867 118.31 10.024C118.075 10.4293 117.697 10.6907 117.174 10.808C116.726 10.904 116.331 10.8613 115.99 10.68C115.659 10.4987 115.366 10.1627 115.11 9.672C114.641 8.76533 114.059 8.01333 113.366 7.416C112.683 6.808 111.953 6.35467 111.174 6.056C110.395 5.75733 109.627 5.608 108.87 5.608C108.091 5.608 107.483 5.79467 107.046 6.168C106.619 6.53067 106.406 6.98933 106.406 7.544C106.406 8.00267 106.539 8.40267 106.806 8.744C107.073 9.08533 107.457 9.384 107.958 9.64C108.47 9.88533 109.083 10.1093 109.798 10.312C111.953 10.9093 113.622 11.6293 114.806 12.472C116.001 13.304 116.833 14.2213 117.302 15.224C117.782 16.2267 118.022 17.2773 118.022 18.376C118.022 19.6987 117.675 20.8987 116.982 21.976C116.289 23.0427 115.291 23.896 113.99 24.536C112.699 25.1653 111.153 25.48 109.35 25.48ZM137.405 19.016L134.173 19.112L139.405 5.608C139.842 4.488 140.312 3.70933 140.813 3.272C141.314 2.824 142.029 2.6 142.957 2.6H148.605C149.234 2.6 149.698 2.74933 149.997 3.048C150.296 3.336 150.445 3.73067 150.445 4.232C150.445 4.66933 150.349 5.02667 150.157 5.304C149.965 5.58133 149.714 5.80533 149.405 5.976L148.893 6.248C148.626 6.38667 148.408 6.54667 148.237 6.728C148.077 6.90933 148.013 7.208 148.045 7.624L148.909 19.976C148.941 20.392 149.016 20.6907 149.133 20.872C149.25 21.0533 149.437 21.2133 149.693 21.352L150.205 21.624C150.493 21.7733 150.722 21.9813 150.893 22.248C151.064 22.5147 151.149 22.856 151.149 23.272C151.149 23.784 151 24.2 150.701 24.52C150.402 24.84 149.938 25 149.309 25H141.005C140.376 25 139.912 24.856 139.613 24.568C139.314 24.2693 139.165 23.8693 139.165 23.368C139.165 22.9733 139.25 22.6373 139.421 22.36C139.592 22.072 139.858 21.8267 140.221 21.624L140.733 21.352C141.01 21.2027 141.224 21.0427 141.373 20.872C141.533 20.6907 141.597 20.392 141.565 19.976L140.413 5.512L143.053 5.48L136.685 21.864C136.258 22.9733 135.853 23.6987 135.469 24.04C135.085 24.3707 134.594 24.536 133.997 24.536C133.57 24.536 133.186 24.4827 132.845 24.376C132.514 24.2587 132.2 24.0027 131.901 23.608C131.602 23.2027 131.282 22.568 130.941 21.704L124.797 6.216L127.117 5.992L125.997 19.976C125.954 20.4347 126.018 20.7547 126.189 20.936C126.36 21.1173 126.578 21.2987 126.845 21.48L127.357 21.832C127.57 21.9707 127.741 22.1627 127.869 22.408C128.008 22.6427 128.077 22.9413 128.077 23.304C128.077 23.8267 127.928 24.2427 127.629 24.552C127.33 24.8507 126.866 25 126.237 25H122.045C121.416 25 120.952 24.856 120.653 24.568C120.354 24.2693 120.205 23.8693 120.205 23.368C120.205 22.8773 120.317 22.504 120.541 22.248C120.765 21.9813 121.058 21.7467 121.421 21.544L121.773 21.352C122.008 21.224 122.194 21.0693 122.333 20.888C122.482 20.696 122.573 20.392 122.605 19.976L123.613 7.624C123.645 7.208 123.581 6.90933 123.421 6.728C123.272 6.54667 123.058 6.38667 122.781 6.248L122.269 5.976C121.949 5.80533 121.693 5.58133 121.501 5.304C121.309 5.02667 121.213 4.66933 121.213 4.232C121.213 3.144 121.826 2.6 123.053 2.6H128.605C129.554 2.6 130.274 2.84 130.765 3.32C131.256 3.8 131.709 4.56267 132.125 5.608L137.405 19.016Z" fill="#438EFF"/>
</svg>
